:SAMPLES-PER-SECOND 30
:FULLY-SPECIFIED
:DEGREES
233
root  -3.05491 41.0198 1.16497 -178.544 -80.3529 -178.042
RightUpLeg  -1.5371 -0.0565919 -1.53515
RightLeg  -4.72162 -10.953 0.81827
RightFoot  3.97671 -0.374845 2.9884
RightToes  -3.13588e-008 1.75238e-005 3.56266e-009
Spine  5.53934 -5.75724 -10.0227
Spine1  -8.43624 -7.21234 13.0437
HEad  -7.06947 -0.845984 1.49419
LeftShoulder1  1.36233 -1.25115 -22.321
LeftArm  -8.65958 -14.5221 -37.509
LeftForeArm  122.6 -78.6679 -119.158
LeftHand  -1.0915 -3.98335 13.7512
RightShoulder  1.4962 1.82423 21.8623
RightArm  -13.7754 -3.47677 40.7806
RightForeArm  23.7216 63.5841 20.8606
RightHand  -0.589734 7.05892 -5.84054
LeftUpLeg  1.80469 0.98342 2.16946
LeftLeg  -5.99548 24.9705 -2.94409
LeftFoot  1.60414 0.256989 -2.34111
LeftToes  4.76812e-008 1.47286e-008 1.3089e-009
234
root  -3.05997 41.0196 1.13179 -177.601 -80.246 -178.726
RightUpLeg  -1.88652 -0.0557719 -1.58993
RightLeg  -4.60335 -10.8352 0.764534
RightFoot  3.93922 -0.361733 2.89631
RightToes  -3.13588e-008 1.75238e-005 3.56266e-009
Spine  6.35207 -5.38242 -9.87032
Spine1  -9.94438 -6.72146 13.2127
HEad  -6.70224 -1.22135 1.93227
LeftShoulder1  1.36012 -1.23618 -22.3664
LeftArm  -6.21661 -7.90318 -36.2581
LeftForeArm  128.829 -77.8183 -125.73
LeftHand  -1.12237 -4.40348 13.5531
RightShoulder  1.35297 1.37726 21.4928
RightArm  -11.6662 -5.31039 39.7532
RightForeArm  30.6096 69.28 27.9028
RightHand  -0.559829 7.57623 -5.36406
LeftUpLeg  1.66957 0.8324 2.06234
LeftLeg  -6.30896 25.2386 -3.05265
LeftFoot  1.75888 0.262392 -2.37921
LeftToes  4.76812e-008 1.47286e-008 1.3089e-009
235
root  -3.09262 41.0191 1.09323 -178.286 -80.2202 -178.116
RightUpLeg  -1.59046 -0.0298205 -1.45944
RightLeg  -4.90521 -10.8659 0.89374
RightFoot  3.99084 -0.360491 2.87978
RightToes  -3.13588e-008 1.75238e-005 3.56266e-009
Spine  7.12078 -5.18681 -9.02274
Spine1  -10.9832 -6.37151 12.4082
HEad  -7.29327 -2.00288 1.92389
LeftShoulder1  1.30997 -1.03749 -22.5279
LeftArm  -2.96532 -1.11153 -34.6727
LeftForeArm  135.058 -76.7147 -132.077
LeftHand  -1.10748 -3.86833 14.1171
RightShoulder  1.30106 1.18187 21.5453
RightArm  -9.77691 -7.32639 38.4966
RightForeArm  40.8892 74.2404 38.7231
RightHand  -0.497855 7.81827 -4.73306
LeftUpLeg  1.82626 0.896242 2.20323
LeftLeg  -6.29925 25.1801 -2.97642
LeftFoot  1.72572 0.275217 -2.49466
LeftToes  4.76812e-008 1.47286e-008 1.3089e-009
236
root  -3.10425 41.0187 1.05282 -178.056 -80.0288 -178.186
RightUpLeg  -1.78081 -0.0153299 -1.42541
RightLeg  -4.85538 -10.686 0.921234
RightFoot  3.96663 -0.340938 2.73783
RightToes  -3.13588e-008 1.75238e-005 3.56266e-009
Spine  7.84248 -4.95925 -8.60561
Spine1  -12.1426 -6.01385 11.9827
HEad  -7.72424 -1.62624 1.99126
LeftShoulder1  1.24488 -0.731212 -23.1053
LeftArm  -0.219493 5.36583 -33.0775
LeftForeArm  140.496 -75.8193 -136.417
LeftHand  -1.12076 -4.71258 13.1227
RightShoulder  1.26451 1.07133 21.4083
RightArm  -8.42032 -8.92034 37.7554
RightForeArm  52.2233 77.0832 50.3067
RightHand  -0.532552 7.97133 -4.98753
LeftUpLeg  1.73178 0.842677 2.21446
LeftLeg  -6.368 25.4469 -2.96112
LeftFoot  1.77816 0.287353 -2.59283
LeftToes  4.76812e-008 1.47286e-008 1.3089e-009
237
root  -3.1195 41.0186 1.00256 -178.347 -80.1261 -177.753
RightUpLeg  -1.83637 0.0674391 -1.28707
RightLeg  -4.9478 -10.8913 0.989894
RightFoot  3.96873 -0.335943 2.70037
RightToes  -3.13588e-008 1.75238e-005 3.56266e-009
Spine  7.51883 -4.74442 -8.38552
Spine1  -11.7206 -5.78725 11.5227
HEad  -8.22069 -2.03058 3.09892
LeftShoulder1  1.18289 -0.465872 -23.513
LeftArm  1.83952 9.56994 -32.2347
LeftForeArm  142.242 -75.6082 -137.424
LeftHand  -1.11546 -4.66066 13.1338
RightShoulder  1.17626 0.78794 21.1718
RightArm  -7.85708 -9.83191 37.4034
RightForeArm  58.9316 78.1641 57.7083
RightHand  -0.527392 8.2208 -4.86112
LeftUpLeg  1.57695 0.903952 2.36833
LeftLeg  -6.29616 25.2985 -2.90219
LeftFoot  1.77509 0.301023 -2.7127
LeftToes  4.76812e-008 1.47286e-008 1.3089e-009
